<?xml version="1.0" encoding="UTF-8" standalone="no"?>
<!-- Created with Inkscape (http://www.inkscape.org/) -->
<svg xmlns:dc="http://purl.org/dc/elements/1.1/" xmlns:cc="http://web.resource.org/cc/" xmlns:rdf="http://www.w3.org/1999/02/22-rdf-syntax-ns#" xmlns:svg="http://www.w3.org/2000/svg" xmlns="http://www.w3.org/2000/svg" xmlns:sodipodi="http://sodipodi.sourceforge.net/DTD/sodipodi-0.dtd" xmlns:inkscape="http://www.inkscape.org/namespaces/inkscape" width="696.47174" height="340.38785" id="svg2" sodipodi:version="0.32" inkscape:version="0.45.1" sodipodi:docbase="/home/twisp/Graphics/Wiki/Czochralski_Process" sodipodi:docname="Czochralski_Process.svg" inkscape:output_extension="org.inkscape.output.svg.inkscape" version="1.0">
  <defs id="defs4"/>
  <sodipodi:namedview id="base" pagecolor="#ffffff" bordercolor="#666666" borderopacity="1.0" gridtolerance="10000" guidetolerance="10" objecttolerance="10" inkscape:pageopacity="0.0" inkscape:pageshadow="2" inkscape:zoom="1.4" inkscape:cx="357.85157" inkscape:cy="138.13644" inkscape:document-units="pt" inkscape:current-layer="g5780" inkscape:window-width="1392" inkscape:window-height="981" inkscape:window-x="0" inkscape:window-y="0" width="595.27559pt" height="841.88975pt" units="pt"/>
  <metadata id="metadata7">
    <rdf:RDF>
      <cc:Work rdf:about="">
        <dc:format>image/svg+xml</dc:format>
        <dc:type rdf:resource="http://purl.org/dc/dcmitype/StillImage"/>
      </cc:Work>
    </rdf:RDF>
  </metadata>
  <g inkscape:label="Layer 1" inkscape:groupmode="layer" id="layer1" transform="translate(-30.6213, -371.291)">
    <g id="g5780">
      <g id="g4262">
        <path sodipodi:type="arc" style="fill: none; fill-rule: evenodd; stroke: rgb(0, 0, 0); stroke-width: 1.04617px; stroke-linecap: butt; stroke-linejoin: miter; stroke-opacity: 1;" id="path2272" sodipodi:cx="138.89598" sodipodi:cy="165.44824" sodipodi:rx="67.175148" sodipodi:ry="12.121831" d="M 206.07113 165.44824 A 67.175148 12.121831 0 1 1  71.720833,165.44824 A 67.175148 12.121831 0 1 1  206.07113 165.44824 z" transform="matrix(0.92296, 0, 0, 0.98995, -35.0706, 263.104)"/>
        <path style="fill: none; fill-opacity: 1; stroke: rgb(0, 0, 0); stroke-width: 1; stroke-miterlimit: 4; stroke-opacity: 1;" d="M 31.121335,427.67565 L 31.121335,614.1444 L 31.121335,614.17565 C 31.210283,620.78501 58.952255,626.14442 93.121335,626.1444 C 127.28967,626.1444 155.03116,620.78483 155.12133,614.17565 C 155.12149,614.16488 155.12133,614.15518 155.12133,614.1444 L 155.12133,427.67565" id="rect2276" sodipodi:nodetypes="cccsscc"/>
      </g>
      <g transform="translate(76.9768, 13.8319)" id="g4226">
        <path sodipodi:type="arc" style="fill: none; fill-rule: evenodd; stroke: rgb(0, 0, 0); stroke-width: 1.04617px; stroke-linecap: butt; stroke-linejoin: miter; stroke-opacity: 1;" id="path4228" sodipodi:cx="138.89598" sodipodi:cy="165.44824" sodipodi:rx="67.175148" sodipodi:ry="12.121831" d="M 206.07113 165.44824 A 67.175148 12.121831 0 1 1  71.720833,165.44824 A 67.175148 12.121831 0 1 1  206.07113 165.44824 z" transform="matrix(0.92296, 0, 0, 0.98995, 30.5893, 249.272)"/>
        <path style="fill: none; fill-opacity: 1; stroke: rgb(0, 0, 0); stroke-width: 1; stroke-miterlimit: 4; stroke-opacity: 1;" d="M 96.78125,413.84375 L 96.78125,600.3125 L 96.78125,600.34375 C 96.870198,606.95311 124.61217,612.31252 158.78125,612.3125 C 192.94958,612.3125 220.69108,606.95293 220.78125,600.34375 C 220.7814,600.33298 220.78125,600.32328 220.78125,600.3125 L 220.78125,413.84375" id="path4230" sodipodi:nodetypes="cccsscc"/>
      </g>
      <g transform="translate(219.614, 13.8319)" id="g4232">
        <path sodipodi:type="arc" style="fill: none; fill-rule: evenodd; stroke: rgb(0, 0, 0); stroke-width: 1.04617px; stroke-linecap: butt; stroke-linejoin: miter; stroke-opacity: 1;" id="path4234" sodipodi:cx="138.89598" sodipodi:cy="165.44824" sodipodi:rx="67.175148" sodipodi:ry="12.121831" d="M 206.07113 165.44824 A 67.175148 12.121831 0 1 1  71.720833,165.44824 A 67.175148 12.121831 0 1 1  206.07113 165.44824 z" transform="matrix(0.92296, 0, 0, 0.98995, 30.5893, 249.272)"/>
        <path style="fill: none; fill-opacity: 1; stroke: rgb(0, 0, 0); stroke-width: 1; stroke-miterlimit: 4; stroke-opacity: 1;" d="M 96.78125,413.84375 L 96.78125,600.3125 L 96.78125,600.34375 C 96.870198,606.95311 124.61217,612.31252 158.78125,612.3125 C 192.94958,612.3125 220.69108,606.95293 220.78125,600.34375 C 220.7814,600.33298 220.78125,600.32328 220.78125,600.3125 L 220.78125,413.84375" id="path4236" sodipodi:nodetypes="cccsscc"/>
      </g>
      <path sodipodi:nodetypes="cccsscc" id="path5652" d="M 459.03169,545.67565 L 459.03169,614.1444 L 459.03169,614.17565 C 459.12064,620.78501 486.86261,626.14442 521.03169,626.1444 C 555.20003,626.1444 582.94152,620.78483 583.03169,614.17565 C 583.03185,614.16488 583.03169,614.15518 583.03169,614.1444 L 583.03169,545.67565" style="fill: rgb(192, 192, 192); fill-opacity: 1; stroke: rgb(0, 0, 0); stroke-width: 1; stroke-miterlimit: 4; stroke-opacity: 1;"/>
      <path transform="matrix(0.92296, 0, 0, 0.98995, 392.84, 383.104)" d="M 206.07113 165.44824 A 67.175148 12.121831 0 1 1  71.720833,165.44824 A 67.175148 12.121831 0 1 1  206.07113 165.44824 z" sodipodi:ry="12.121831" sodipodi:rx="67.175148" sodipodi:cy="165.44824" sodipodi:cx="138.89598" id="path5654" style="fill: rgb(192, 192, 192); fill-opacity: 1; fill-rule: evenodd; stroke: rgb(0, 0, 0); stroke-width: 1.04617px; stroke-linecap: butt; stroke-linejoin: miter; stroke-opacity: 1;" sodipodi:type="arc"/>
      <path sodipodi:nodetypes="ccccc" id="path5694" d="M 509.03125,468.0625 L 509.03125,552.34375 C 517.03125,557.10563 525.03124,557.10566 533.03125,552.34375 L 533.03125,468.0625 L 509.03125,468.0625 z " style="fill: rgb(100, 100, 100); fill-opacity: 1; fill-rule: evenodd; stroke: rgb(0, 0, 0); stroke-width: 1px; stroke-linecap: butt; stroke-linejoin: miter; stroke-opacity: 1;"/>
      <path id="path5688" d="M 521.03345,372.42053 L 521.03345,460.99196" style="fill: none; fill-rule: evenodd; stroke: rgb(0, 0, 0); stroke-width: 1px; stroke-linecap: butt; stroke-linejoin: miter; stroke-opacity: 1;" sodipodi:nodetypes="cc"/>
      <path sodipodi:nodetypes="cccc" id="path5690" d="M 521.03345,459.36218 L 509.03345,467.93361 C 517.03345,472.69551 525.03344,472.69552 533.03345,467.93361 L 521.03345,459.36218 z " style="fill: rgb(100, 100, 100); fill-opacity: 1; fill-rule: evenodd; stroke: rgb(0, 0, 0); stroke-width: 1px; stroke-linecap: butt; stroke-linejoin: miter; stroke-opacity: 1;"/>
      <g transform="translate(362.25, 13.8319)" id="g4238">
        <path sodipodi:type="arc" style="fill: none; fill-rule: evenodd; stroke: rgb(0, 0, 0); stroke-width: 1.04617px; stroke-linecap: butt; stroke-linejoin: miter; stroke-opacity: 1;" id="path4240" sodipodi:cx="138.89598" sodipodi:cy="165.44824" sodipodi:rx="67.175148" sodipodi:ry="12.121831" d="M 206.07113 165.44824 A 67.175148 12.121831 0 1 1  71.720833,165.44824 A 67.175148 12.121831 0 1 1  206.07113 165.44824 z" transform="matrix(0.92296, 0, 0, 0.98995, 30.5893, 249.272)"/>
        <path style="fill: none; fill-opacity: 1; stroke: rgb(0, 0, 0); stroke-width: 1; stroke-miterlimit: 4; stroke-opacity: 1;" d="M 96.78125,413.84375 L 96.78125,600.3125 L 96.78125,600.34375 C 96.870198,606.95311 124.61217,612.31252 158.78125,612.3125 C 192.94958,612.3125 220.69108,606.95293 220.78125,600.34375 C 220.7814,600.33298 220.78125,600.32328 220.78125,600.3125 L 220.78125,413.84375" id="path4242" sodipodi:nodetypes="cccsscc"/>
      </g>
      <g transform="translate(504.887, 13.8319)" id="g4244">
        <path sodipodi:type="arc" style="fill: none; fill-rule: evenodd; stroke: rgb(0, 0, 0); stroke-width: 1.04617px; stroke-linecap: butt; stroke-linejoin: miter; stroke-opacity: 1;" id="path4246" sodipodi:cx="138.89598" sodipodi:cy="165.44824" sodipodi:rx="67.175148" sodipodi:ry="12.121831" d="M 206.07113 165.44824 A 67.175148 12.121831 0 1 1  71.720833,165.44824 A 67.175148 12.121831 0 1 1  206.07113 165.44824 z" transform="matrix(0.92296, 0, 0, 0.98995, 30.5893, 249.272)"/>
        <path style="fill: none; fill-opacity: 1; stroke: rgb(0, 0, 0); stroke-width: 1; stroke-miterlimit: 4; stroke-opacity: 1;" d="M 96.78125,413.84375 L 96.78125,600.3125 L 96.78125,600.34375 C 96.870198,606.95311 124.61217,612.31252 158.78125,612.3125 C 192.94958,612.3125 220.69108,606.95293 220.78125,600.34375 C 220.7814,600.33298 220.78125,600.32328 220.78125,600.3125 L 220.78125,413.84375" id="path4248" sodipodi:nodetypes="cccsscc"/>
      </g>
      <path sodipodi:nodetypes="cccsscc" id="path4270" d="M 31.121335,539.67565 L 31.121335,614.1444 L 31.121335,614.17565 C 31.210283,620.78501 58.952255,626.14442 93.121335,626.1444 C 127.28967,626.1444 155.03116,620.78483 155.12133,614.17565 C 155.12149,614.16488 155.12133,614.15518 155.12133,614.1444 L 155.12133,539.67565" style="fill: rgb(192, 192, 192); fill-opacity: 1; stroke: rgb(0, 0, 0); stroke-width: 1; stroke-miterlimit: 4; stroke-opacity: 1;"/>
      <path transform="matrix(0.92296, 0, 0, 0.98995, -35.0706, 375.104)" d="M 206.07113 165.44824 A 67.175148 12.121831 0 1 1  71.720833,165.44824 A 67.175148 12.121831 0 1 1  206.07113 165.44824 z" sodipodi:ry="12.121831" sodipodi:rx="67.175148" sodipodi:cy="165.44824" sodipodi:cx="138.89598" id="path4268" style="fill: rgb(192, 192, 192); fill-opacity: 1; fill-rule: evenodd; stroke: rgb(0, 0, 0); stroke-width: 1.04617px; stroke-linecap: butt; stroke-linejoin: miter; stroke-opacity: 1;" sodipodi:type="arc"/>
      <g id="g5401">
        <path style="fill: rgb(100, 100, 100); fill-opacity: 1; fill-rule: evenodd; stroke: rgb(0, 0, 0); stroke-width: 1px; stroke-linecap: butt; stroke-linejoin: miter; stroke-opacity: 1;" d="M 84.810804,528.93852 L 77.445122,535.81717 L 81.022732,539.78563 L 84.810804,529.20309 L 90.072004,540.05019 L 81.204192,540.05019" id="path5322" sodipodi:nodetypes="cccccc"/>
        <path style="fill: rgb(100, 100, 100); fill-opacity: 1; fill-rule: evenodd; stroke: rgb(0, 0, 0); stroke-width: 1px; stroke-linecap: butt; stroke-linejoin: miter; stroke-opacity: 1;" d="M 92.639404,528.09303 L 100.00509,534.97168 L 96.427474,538.94014 L 92.639404,528.3576 L 87.378204,539.2047 L 96.246014,539.2047" id="path4285" sodipodi:nodetypes="cccccc"/>
        <g id="g5272" transform="matrix(0.395464, -0.552672, 0.520767, 0.372635, -270.71, 304.007)">
          <path sodipodi:nodetypes="ccc" id="path5274" d="M 35.355339,682.41413 L 66.670068,671.30245 L 51.012703,682.66667" style="fill: rgb(100, 100, 100); fill-opacity: 1; fill-rule: evenodd; stroke: rgb(0, 0, 0); stroke-width: 1.51589px; stroke-linecap: butt; stroke-linejoin: miter; stroke-opacity: 1;"/>
          <path sodipodi:nodetypes="ccccc" id="path5276" d="M 51.265243,683.15144 L 66.417527,671.78723 L 62.629455,683.90906 L 51.265243,695.79866 L 51.265243,683.15144 z " style="fill: rgb(100, 100, 100); fill-opacity: 1; stroke: rgb(0, 0, 0); stroke-width: 1.51589; stroke-miterlimit: 4; stroke-opacity: 1;"/>
          <path style="fill: rgb(100, 100, 100); fill-opacity: 1; stroke: rgb(0, 0, 0); stroke-width: 1.51589; stroke-miterlimit: 4; stroke-opacity: 1;" d="M 35.355339,682.64636 L 51.012704,682.64636 L 51.012704,696.28342 L 40.966991,691.05213 L 35.355339,682.64636 z " id="rect5278" sodipodi:nodetypes="ccccc"/>
        </g>
        <g id="g5267" transform="matrix(0.679587, 0, 0, 0.640356, 70.7671, 99.3239)">
          <path sodipodi:nodetypes="ccc" id="path5260" d="M 35.355339,682.41413 L 66.670068,671.30245 L 51.012703,682.66667" style="fill: rgb(100, 100, 100); fill-opacity: 1; fill-rule: evenodd; stroke: rgb(0, 0, 0); stroke-width: 1.51589px; stroke-linecap: butt; stroke-linejoin: miter; stroke-opacity: 1;"/>
          <path sodipodi:nodetypes="ccccc" id="rect5264" d="M 51.265243,683.15144 L 66.417527,671.78723 L 62.629455,683.90906 L 51.265243,695.79866 L 51.265243,683.15144 z " style="fill: rgb(100, 100, 100); fill-opacity: 1; stroke: rgb(0, 0, 0); stroke-width: 1.51589; stroke-miterlimit: 4; stroke-opacity: 1;"/>
          <rect y="682.64636" x="35.355339" height="13.637059" width="15.657365" id="rect5258" style="opacity: 1; fill: rgb(100, 100, 100); fill-opacity: 1; stroke: rgb(0, 0, 0); stroke-width: 1.51589; stroke-miterlimit: 4; stroke-dasharray: none; stroke-opacity: 1;"/>
        </g>
        <g id="g5291" transform="matrix(-0.0224921, 0.999747, -0.999747, -0.0224921, 745.767, 442.627)">
          <path sodipodi:nodetypes="ccc" id="path5287" d="M 115.15739,673.55498 C 113.13709,671.0296 100.51018,670.01945 100.51018,670.01945 L 106.57109,687.69711" style="fill: rgb(100, 100, 100); fill-opacity: 1; fill-rule: evenodd; stroke: rgb(0, 0, 0); stroke-width: 1px; stroke-linecap: butt; stroke-linejoin: miter; stroke-opacity: 1;"/>
          <path id="path5289" d="M 106.06602,673.0499 L 100.51018,670.52452" style="fill: none; fill-rule: evenodd; stroke: rgb(0, 0, 0); stroke-width: 1px; stroke-linecap: butt; stroke-linejoin: miter; stroke-opacity: 1;" sodipodi:nodetypes="cc"/>
          <path id="rect5281" d="M 106.5711,673.04993 L 115.66247,673.04993 L 115.66247,687.69714 L 106.5711,687.69714 L 106.5711,673.04993 z " style="fill: rgb(100, 100, 100); fill-opacity: 1; stroke: rgb(0, 0, 0); stroke-width: 1; stroke-miterlimit: 4; stroke-opacity: 1;"/>
        </g>
        <g id="g5296" transform="matrix(0.395464, -0.552672, 0.520767, 0.372635, -302.832, 310.573)">
          <path sodipodi:nodetypes="ccc" id="path5298" d="M 35.355339,682.41413 L 66.670068,671.30245 L 51.012703,682.66667" style="fill: rgb(100, 100, 100); fill-opacity: 1; fill-rule: evenodd; stroke: rgb(0, 0, 0); stroke-width: 1.51589px; stroke-linecap: butt; stroke-linejoin: miter; stroke-opacity: 1;"/>
          <path sodipodi:nodetypes="ccccc" id="path5300" d="M 51.265243,683.15144 L 66.417527,671.78723 L 62.629455,683.90906 L 51.265243,695.79866 L 51.265243,683.15144 z " style="fill: rgb(100, 100, 100); fill-opacity: 1; stroke: rgb(0, 0, 0); stroke-width: 1.51589; stroke-miterlimit: 4; stroke-opacity: 1;"/>
          <path style="fill: rgb(100, 100, 100); fill-opacity: 1; stroke: rgb(0, 0, 0); stroke-width: 1.51589; stroke-miterlimit: 4; stroke-opacity: 1;" d="M 35.355339,682.64636 L 51.012704,682.64636 L 51.012704,696.28342 L 40.966991,691.05213 L 35.355339,682.64636 z " id="path5302" sodipodi:nodetypes="ccccc"/>
        </g>
        <path style="fill: rgb(100, 100, 100); fill-opacity: 1; fill-rule: evenodd; stroke: rgb(0, 0, 0); stroke-width: 1px; stroke-linecap: butt; stroke-linejoin: miter; stroke-opacity: 1;" d="M 78.244731,535.66916 L 85.610417,542.54781 L 82.032801,546.51627 L 78.244731,535.93373 L 72.983531,546.78083 L 81.851341,546.78083" id="path5304" sodipodi:nodetypes="cccccc"/>
        <g id="g5314" transform="matrix(-0.395464, -0.552672, -0.520767, 0.372635, 429.522, 308.893)">
          <path sodipodi:nodetypes="ccc" id="path5316" d="M 35.355339,682.41413 L 66.670068,671.30245 L 51.012703,682.66667" style="fill: rgb(100, 100, 100); fill-opacity: 1; fill-rule: evenodd; stroke: rgb(0, 0, 0); stroke-width: 1.51589px; stroke-linecap: butt; stroke-linejoin: miter; stroke-opacity: 1;"/>
          <path sodipodi:nodetypes="ccccc" id="path5318" d="M 51.265243,683.15144 L 66.417527,671.78723 L 62.629455,683.90906 L 51.265243,695.79866 L 51.265243,683.15144 z " style="fill: rgb(100, 100, 100); fill-opacity: 1; stroke: rgb(0, 0, 0); stroke-width: 1.51589; stroke-miterlimit: 4; stroke-opacity: 1;"/>
          <path style="fill: rgb(100, 100, 100); fill-opacity: 1; stroke: rgb(0, 0, 0); stroke-width: 1.51589; stroke-miterlimit: 4; stroke-opacity: 1;" d="M 35.355339,682.64636 L 51.012704,682.64636 L 51.012704,696.28342 L 40.966991,691.05213 L 35.355339,682.64636 z " id="path5320" sodipodi:nodetypes="ccccc"/>
        </g>
        <g id="g5306" transform="matrix(0.0224921, 0.999747, 0.999747, -0.0224921, -619.077, 446.947)">
          <path sodipodi:nodetypes="ccc" id="path5308" d="M 115.15739,673.55498 C 113.13709,671.0296 100.51018,670.01945 100.51018,670.01945 L 106.57109,687.69711" style="fill: rgb(100, 100, 100); fill-opacity: 1; fill-rule: evenodd; stroke: rgb(0, 0, 0); stroke-width: 1px; stroke-linecap: butt; stroke-linejoin: miter; stroke-opacity: 1;"/>
          <path id="path5310" d="M 106.06602,673.0499 L 100.51018,670.52452" style="fill: none; fill-rule: evenodd; stroke: rgb(0, 0, 0); stroke-width: 1px; stroke-linecap: butt; stroke-linejoin: miter; stroke-opacity: 1;" sodipodi:nodetypes="cc"/>
          <path id="path5312" d="M 106.5711,673.04993 L 115.66247,673.04993 L 115.66247,687.69714 L 106.5711,687.69714 L 106.5711,673.04993 z " style="fill: rgb(100, 100, 100); fill-opacity: 1; stroke: rgb(0, 0, 0); stroke-width: 1; stroke-miterlimit: 4; stroke-opacity: 1;"/>
        </g>
        <g id="g5356" transform="matrix(0.395464, -0.552672, 0.520767, 0.372635, -249.715, 310.913)">
          <path sodipodi:nodetypes="ccc" id="path5358" d="M 35.355339,682.41413 L 66.670068,671.30245 L 51.012703,682.66667" style="fill: rgb(100, 100, 100); fill-opacity: 1; fill-rule: evenodd; stroke: rgb(0, 0, 0); stroke-width: 1.51589px; stroke-linecap: butt; stroke-linejoin: miter; stroke-opacity: 1;"/>
          <path sodipodi:nodetypes="ccccc" id="path5360" d="M 51.265243,683.15144 L 66.417527,671.78723 L 62.629455,683.90906 L 51.265243,695.79866 L 51.265243,683.15144 z " style="fill: rgb(100, 100, 100); fill-opacity: 1; stroke: rgb(0, 0, 0); stroke-width: 1.51589; stroke-miterlimit: 4; stroke-opacity: 1;"/>
          <path style="fill: rgb(100, 100, 100); fill-opacity: 1; stroke: rgb(0, 0, 0); stroke-width: 1.51589; stroke-miterlimit: 4; stroke-opacity: 1;" d="M 35.355339,682.64636 L 51.012704,682.64636 L 51.012704,696.28342 L 40.966991,691.05213 L 35.355339,682.64636 z " id="path5362" sodipodi:nodetypes="ccccc"/>
        </g>
        <path style="fill: rgb(100, 100, 100); fill-opacity: 1; fill-rule: evenodd; stroke: rgb(0, 0, 0); stroke-width: 1px; stroke-linecap: butt; stroke-linejoin: miter; stroke-opacity: 1;" d="M 132.37198,536.0096 L 139.73767,542.88825 L 136.16005,546.85671 L 132.37198,536.27417 L 127.11078,547.12127 L 135.97859,547.12127" id="path5364" sodipodi:nodetypes="cccccc"/>
        <g id="g5348" transform="matrix(-0.0224921, 0.999747, -0.999747, -0.0224921, 798.885, 442.967)">
          <path sodipodi:nodetypes="ccc" id="path5350" d="M 115.15739,673.55498 C 113.13709,671.0296 100.51018,670.01945 100.51018,670.01945 L 106.57109,687.69711" style="fill: rgb(100, 100, 100); fill-opacity: 1; fill-rule: evenodd; stroke: rgb(0, 0, 0); stroke-width: 1px; stroke-linecap: butt; stroke-linejoin: miter; stroke-opacity: 1;"/>
          <path id="path5352" d="M 106.06602,673.0499 L 100.51018,670.52452" style="fill: none; fill-rule: evenodd; stroke: rgb(0, 0, 0); stroke-width: 1px; stroke-linecap: butt; stroke-linejoin: miter; stroke-opacity: 1;" sodipodi:nodetypes="cc"/>
          <path id="path5354" d="M 106.5711,673.04993 L 115.66247,673.04993 L 115.66247,687.69714 L 106.5711,687.69714 L 106.5711,673.04993 z " style="fill: rgb(100, 100, 100); fill-opacity: 1; stroke: rgb(0, 0, 0); stroke-width: 1; stroke-miterlimit: 4; stroke-opacity: 1;"/>
        </g>
        <g id="g5375" transform="matrix(0.395464, -0.552672, 0.520767, 0.372635, -267.982, 311.583)">
          <path sodipodi:nodetypes="ccc" id="path5377" d="M 35.355339,682.41413 L 66.670068,671.30245 L 51.012703,682.66667" style="fill: rgb(100, 100, 100); fill-opacity: 1; fill-rule: evenodd; stroke: rgb(0, 0, 0); stroke-width: 1.51589px; stroke-linecap: butt; stroke-linejoin: miter; stroke-opacity: 1;"/>
          <path sodipodi:nodetypes="ccccc" id="path5379" d="M 51.265243,683.15144 L 66.417527,671.78723 L 62.629455,683.90906 L 51.265243,695.79866 L 51.265243,683.15144 z " style="fill: rgb(100, 100, 100); fill-opacity: 1; stroke: rgb(0, 0, 0); stroke-width: 1.51589; stroke-miterlimit: 4; stroke-opacity: 1;"/>
          <path style="fill: rgb(100, 100, 100); fill-opacity: 1; stroke: rgb(0, 0, 0); stroke-width: 1.51589; stroke-miterlimit: 4; stroke-opacity: 1;" d="M 35.355339,682.64636 L 51.012704,682.64636 L 51.012704,696.28342 L 40.966991,691.05213 L 35.355339,682.64636 z " id="path5381" sodipodi:nodetypes="ccccc"/>
        </g>
      </g>
      <path sodipodi:nodetypes="cccsscc" id="path5446" d="M 173.7581,503.67565 L 173.7581,614.1444 L 173.7581,614.17565 C 173.84705,620.78501 201.58902,626.14442 235.7581,626.1444 C 269.92644,626.1444 297.66793,620.78483 297.7581,614.17565 C 297.75826,614.16488 297.7581,614.15518 297.7581,614.1444 L 297.7581,503.67565" style="fill: rgb(192, 192, 192); fill-opacity: 1; stroke: rgb(0, 0, 0); stroke-width: 1; stroke-miterlimit: 4; stroke-opacity: 1;"/>
      <path transform="matrix(0.92296, 0, 0, 0.98995, 107.566, 339.104)" d="M 206.07113 165.44824 A 67.175148 12.121831 0 1 1  71.720833,165.44824 A 67.175148 12.121831 0 1 1  206.07113 165.44824 z" sodipodi:ry="12.121831" sodipodi:rx="67.175148" sodipodi:cy="165.44824" sodipodi:cx="138.89598" id="path5448" style="fill: rgb(192, 192, 192); fill-opacity: 1; fill-rule: evenodd; stroke: rgb(0, 0, 0); stroke-width: 1.04617px; stroke-linecap: butt; stroke-linejoin: miter; stroke-opacity: 1;" sodipodi:type="arc"/>
      <g transform="translate(-1.91872, 26)" id="g5586">
        <path sodipodi:nodetypes="cc" style="fill: none; fill-rule: evenodd; stroke: rgb(0, 0, 0); stroke-width: 1px; stroke-linecap: butt; stroke-linejoin: miter; stroke-opacity: 1;" d="M 237.50001,345.79075 L 237.50001,456.36218" id="path5456"/>
        <path style="fill: rgb(100, 100, 100); fill-opacity: 1; fill-rule: evenodd; stroke: rgb(0, 0, 0); stroke-width: 1px; stroke-linecap: butt; stroke-linejoin: miter; stroke-opacity: 1;" d="M 237.48025,462.45147 L 232.99126,453.01683 L 237.48025,451.96402 L 237.48026,462.46484 L 242.36589,453.4705 L 237.48025,452.11631" id="path5522" sodipodi:nodetypes="cccccc"/>
      </g>
      <g transform="translate(144.825, 50.4404)" id="g5594">
        <path style="fill: rgb(192, 192, 192); fill-opacity: 1; stroke: rgb(0, 0, 0); stroke-width: 1; stroke-miterlimit: 4; stroke-opacity: 1;" d="M 171.56967,453.23525 L 171.56967,563.704 L 171.56967,563.73525 C 171.65862,570.34461 199.40059,575.70402 233.56967,575.704 C 267.73801,575.704 295.4795,570.34443 295.56967,563.73525 C 295.56983,563.72448 295.56967,563.71478 295.56967,563.704 L 295.56967,453.23525" id="path5590" sodipodi:nodetypes="cccsscc"/>
        <path sodipodi:type="arc" style="fill: rgb(192, 192, 192); fill-opacity: 1; fill-rule: evenodd; stroke: rgb(0, 0, 0); stroke-width: 1.04617px; stroke-linecap: butt; stroke-linejoin: miter; stroke-opacity: 1;" id="path5592" sodipodi:cx="138.89598" sodipodi:cy="165.44824" sodipodi:rx="67.175148" sodipodi:ry="12.121831" d="M 206.07113 165.44824 A 67.175148 12.121831 0 1 1  71.720833,165.44824 A 67.175148 12.121831 0 1 1  206.07113 165.44824 z" transform="matrix(0.92296, 0, 0, 0.98995, 105.378, 288.664)"/>
      </g>
      <text id="text5604" y="657.362" x="46.751" style="font-size: 20px; font-style: normal; font-weight: normal; text-align: start; text-anchor: start; fill: rgb(0, 0, 0); fill-opacity: 1; stroke: none; stroke-width: 1px; stroke-linecap: butt; stroke-linejoin: miter; stroke-opacity: 1; font-family: serif;" xml:space="preserve"><tspan id="tspan5608" y="657.362" x="46.751" sodipodi:role="line">Melting of </tspan><tspan id="tspan5612" y="682.362" x="46.751" sodipodi:role="line">polysilicon,</tspan><tspan id="tspan5614" y="707.362" x="46.751" sodipodi:role="line">doping</tspan></text>
      <text id="text5616" y="657.362" x="174.232" style="font-size: 20px; font-style: normal; font-weight: normal; fill: rgb(0, 0, 0); fill-opacity: 1; stroke: none; stroke-width: 1px; stroke-linecap: butt; stroke-linejoin: miter; stroke-opacity: 1; font-family: serif;" xml:space="preserve"><tspan y="657.362" x="174.232" id="tspan5618" sodipodi:role="line">Introduction of</tspan><tspan id="tspan5620" y="682.362" x="174.232" sodipodi:role="line">the seed crystal</tspan></text>
      <path id="path5600" d="M 378.96806,372.42053 L 378.96806,496.99196" style="fill: none; fill-rule: evenodd; stroke: rgb(0, 0, 0); stroke-width: 1px; stroke-linecap: butt; stroke-linejoin: miter; stroke-opacity: 1;" sodipodi:nodetypes="cc"/>
      <path sodipodi:nodetypes="cccc" id="path5624" d="M 378.96806,497.36218 L 366.96806,505.93361 C 374.96806,510.69551 382.96805,510.69552 390.96806,505.93361 L 378.96806,497.36218 z " style="fill: rgb(100, 100, 100); fill-opacity: 1; fill-rule: evenodd; stroke: rgb(0, 0, 0); stroke-width: 1px; stroke-linecap: butt; stroke-linejoin: miter; stroke-opacity: 1;"/>
      <text id="text5626" y="657.362" x="324.793" style="font-size: 20px; font-style: normal; font-weight: normal; fill: rgb(0, 0, 0); fill-opacity: 1; stroke: none; stroke-width: 1px; stroke-linecap: butt; stroke-linejoin: miter; stroke-opacity: 1; font-family: serif;" xml:space="preserve"><tspan y="657.362" x="324.793" id="tspan5628" sodipodi:role="line">Beginning of</tspan><tspan id="tspan5630" y="682.362" x="324.793" sodipodi:role="line">the crystal</tspan><tspan id="tspan5632" y="707.362" x="324.793" sodipodi:role="line">growth</tspan></text>
      <path sodipodi:nodetypes="cccsscc" id="path5733" d="M 601.66844,605.67565 L 601.66844,614.1444 L 601.66844,614.17565 C 601.75739,620.78501 629.49936,626.14442 663.66844,626.1444 C 697.83678,626.1444 725.57827,620.78483 725.66844,614.17565 C 725.6686,614.16488 725.66844,614.15518 725.66844,614.1444 L 725.66844,605.67565" style="fill: rgb(192, 192, 192); fill-opacity: 1; stroke: rgb(0, 0, 0); stroke-width: 1; stroke-miterlimit: 4; stroke-opacity: 1;"/>
      <path transform="matrix(0.92296, 0, 0, 0.98995, 535.476, 443.104)" d="M 206.07113 165.44824 A 67.175148 12.121831 0 1 1  71.720833,165.44824 A 67.175148 12.121831 0 1 1  206.07113 165.44824 z" sodipodi:ry="12.121831" sodipodi:rx="67.175148" sodipodi:cy="165.44824" sodipodi:cx="138.89598" id="path5735" style="fill: rgb(192, 192, 192); fill-opacity: 1; fill-rule: evenodd; stroke: rgb(0, 0, 0); stroke-width: 1.04617px; stroke-linecap: butt; stroke-linejoin: miter; stroke-opacity: 1;" sodipodi:type="arc"/>
      <g transform="translate(103.67, -153.623)" id="g5759">
        <path style="fill: rgb(100, 100, 100); fill-opacity: 1; fill-rule: evenodd; stroke: rgb(0, 0, 0); stroke-width: 1px; stroke-linecap: butt; stroke-linejoin: miter; stroke-opacity: 1;" d="M 547.9989,605.6854 L 547.9989,741.96665 C 555.9989,746.72853 563.99889,746.72856 571.9989,741.96665 L 571.9989,605.6854 L 547.9989,605.6854 z " id="path5753" sodipodi:nodetypes="ccccc"/>
        <path sodipodi:nodetypes="cc" style="fill: none; fill-rule: evenodd; stroke: rgb(0, 0, 0); stroke-width: 1px; stroke-linecap: butt; stroke-linejoin: miter; stroke-opacity: 1;" d="M 560.0011,526.04343 L 560.0011,598.61486" id="path5755"/>
        <path style="fill: rgb(100, 100, 100); fill-opacity: 1; fill-rule: evenodd; stroke: rgb(0, 0, 0); stroke-width: 1px; stroke-linecap: butt; stroke-linejoin: miter; stroke-opacity: 1;" d="M 560.0011,596.98508 L 548.0011,605.55651 C 556.0011,610.31841 564.00109,610.31842 572.0011,605.55651 L 560.0011,596.98508 z " id="path5757" sodipodi:nodetypes="cccc"/>
      </g>
      <text id="text5764" y="657.362" x="492.181" style="font-size: 20px; font-style: normal; font-weight: normal; fill: rgb(0, 0, 0); fill-opacity: 1; stroke: none; stroke-width: 1px; stroke-linecap: butt; stroke-linejoin: miter; stroke-opacity: 1; font-family: serif;" xml:space="preserve"><tspan y="657.362" x="492.181" id="tspan5766" sodipodi:role="line">Crystal </tspan><tspan id="tspan5768" y="682.362" x="492.181" sodipodi:role="line">pulling</tspan></text>
      <text id="text5770" y="657.362" x="592.12" style="font-size: 20px; font-style: normal; font-weight: normal; fill: rgb(0, 0, 0); fill-opacity: 1; stroke: none; stroke-width: 1px; stroke-linecap: butt; stroke-linejoin: miter; stroke-opacity: 1; font-family: serif;" xml:space="preserve"><tspan y="657.362" x="592.12" id="tspan5772" sodipodi:role="line">Formed crystal </tspan><tspan id="tspan5774" y="682.362" x="592.12" sodipodi:role="line">with a residue </tspan><tspan id="tspan5776" y="707.362" x="592.12" sodipodi:role="line">of melted silicon</tspan></text>
    </g>
  </g>
</svg>